<svg height="512pt" viewBox="0 0 512 512" width="512pt" xmlns="http://www.w3.org/2000/svg"><path d="m503.171875 229.515625h-45.902344c-12.0625-91.066406-83.71875-162.722656-174.785156-174.785156v-45.902344c-.015625-4.871094-3.960937-8.8125-8.828125-8.828125h-35.3125c-4.867188.015625-8.8125 3.957031-8.828125 8.828125v45.902344c-91.066406 12.0625-162.722656 83.71875-174.785156 174.785156h-45.902344c-4.871094.015625-8.8125 3.960937-8.828125 8.828125v35.3125c.015625 4.867188 3.957031 8.8125 8.828125 8.828125h45.902344c12.0625 91.066406 83.71875 162.722656 174.785156 174.785156v45.902344c.015625 4.871094 3.960937 8.8125 8.828125 8.828125h35.3125c4.867188-.015625 8.8125-3.957031 8.828125-8.828125v-45.902344c91.066406-12.0625 162.722656-83.71875 174.785156-174.785156h45.902344c4.871094-.015625 8.8125-3.960937 8.828125-8.828125v-35.3125c-.015625-4.867188-3.957031-8.8125-8.828125-8.828125zm-247.171875 176.554687c-82.878906 0-150.070312-67.191406-150.070312-150.070312s67.191406-150.070312 150.070312-150.070312 150.070312 67.191406 150.070312 150.070312c-.125 82.828125-67.242187 149.945312-150.070312 150.070312zm0 0" fill="#955ba5"/><path d="m326.621094 256c0 39.003906-31.617188 70.621094-70.621094 70.621094s-70.621094-31.617188-70.621094-70.621094 31.617188-70.621094 70.621094-70.621094 70.621094 31.617188 70.621094 70.621094zm0 0" fill="#955ba5"/><g fill="#894b9d"><path d="m512 238.34375v35.3125c-.015625 4.867188-3.957031 8.8125-8.828125 8.828125h-45.902344c-12.0625 91.066406-83.71875 162.722656-174.785156 174.785156v45.902344c-.015625 4.871094-3.960937 8.8125-8.828125 8.828125h-17.65625v-105.929688c82.878906 0 150.070312-67.191406 150.070312-150.070312s-67.191406-150.070312-150.070312-150.070312v-105.929688h17.65625c4.867188.015625 8.8125 3.957031 8.828125 8.828125v45.902344c91.066406 12.0625 162.722656 83.71875 174.785156 174.785156h45.902344c4.871094.015625 8.8125 3.960937 8.828125 8.828125zm0 0"/><path d="m326.621094 256c.003906 18.730469-7.433594 36.695312-20.679688 49.941406s-31.210937 20.683594-49.941406 20.679688v-141.242188c18.730469-.003906 36.695312 7.433594 49.941406 20.679688s20.683594 31.210937 20.679688 49.941406zm0 0"/></g></svg>