<svg width="35" height="35" viewBox="0 0 35 35" fill="none" xmlns="http://www.w3.org/2000/svg">
<path d="M5.83301 11.6667C5.83301 5.2338 11.0668 0 17.4997 0C23.9326 0 29.1664 5.2338 29.1664 11.6666C29.1664 13.5978 28.6836 15.5126 27.7693 17.2052L18.1377 34.624C18.0095 34.8562 17.7653 35 17.4997 35C17.2341 35 16.9899 34.8562 16.8617 34.624L7.23369 17.2109C6.31583 15.5126 5.83301 13.5978 5.83301 11.6667Z" fill="#48004B"/>
<path d="M17.4993 5.83331C14.2829 5.83331 11.666 8.45018 11.666 11.6666C11.666 14.8831 14.2829 17.5 17.4993 17.5C20.7158 17.5 23.3326 14.8831 23.3326 11.6667C23.3326 8.45025 20.7158 5.83331 17.4993 5.83331ZM17.4993 16.0417C15.0868 16.0417 13.1243 14.0792 13.1243 11.6667C13.1243 9.25415 15.0868 7.29169 17.4993 7.29169C19.9119 7.29169 21.8743 9.25415 21.8743 11.6667C21.8743 14.0792 19.9119 16.0417 17.4993 16.0417Z" fill="white"/>
</svg>
